<?xml version="1.0" encoding="UTF-8" standalone="no"?>
<!DOCTYPE svg PUBLIC "-//W3C//DTD SVG 1.1//EN" "http://www.w3.org/Graphics/SVG/1.1/DTD/svg11.dtd">
<!-- Created with Vectornator (http://vectornator.io/) -->
<svg height="100%" stroke-miterlimit="10" style="fill-rule:nonzero;clip-rule:evenodd;stroke-linecap:round;stroke-linejoin:round;" version="1.1" viewBox="0 0 48 48" width="100%" xml:space="preserve" xmlns="http://www.w3.org/2000/svg" xmlns:vectornator="http://vectornator.io" xmlns:xlink="http://www.w3.org/1999/xlink">
<defs/>
<g id="Senza-Titolo" vectornator:layerName="Senza Titolo">
<path d="M24 5C13.5066 5 5 13.5066 5 24C5 34.4934 13.5066 43 24 43C34.4934 43 43 34.4934 43 24C43 13.5066 34.4934 5 24 5Z" fill="#039be5" fill-rule="nonzero" opacity="1" stroke="none" vectornator:layerName="path"/>
<path d="M26.572 29.036L31.489 29.036L32.261 24.041L26.571 24.041L26.571 21.311C26.571 19.236 27.249 17.396 29.19 17.396L32.309 17.396L32.309 13.037C31.761 12.963 30.602 12.801 28.412 12.801C23.839 12.801 21.158 15.216 21.158 20.718L21.158 24.041L16.457 24.041L16.457 29.036L21.158 29.036L21.158 42.765C22.089 42.905 23.032 43 24 43C24.875 43 25.729 42.92 26.572 42.806L26.572 29.036Z" fill="#ffffff" fill-rule="nonzero" opacity="1" stroke="none" vectornator:layerName="path"/>
</g>
</svg>
